<svg width="24" height="24" viewBox="0 0 24 24" fill="none" xmlns="http://www.w3.org/2000/svg">
<path d="M8 16.91L6.32 17.91C5.93471 18.1175 5.50073 18.2175 5.0635 18.1996C4.62628 18.1817 4.20191 18.0466 3.83486 17.8084C3.4678 17.5701 3.17157 17.2376 2.97718 16.8455C2.7828 16.4535 2.69742 16.0164 2.73 15.58V8.44001C2.69515 8.00082 2.77986 7.56039 2.97515 7.16546C3.17044 6.77053 3.46901 6.43585 3.83917 6.19693C4.20934 5.95802 4.63729 5.82378 5.07759 5.80848C5.5179 5.79318 5.95414 5.89737 6.34 6.11001L8 7.09001" stroke="white" stroke-width="1.5" stroke-linecap="round" stroke-linejoin="round"/>
<path d="M20 14.34L14 17.89C13.6137 18.0991 13.1783 18.2005 12.7394 18.1836C12.3005 18.1667 11.8742 18.0321 11.5051 17.7939C11.1361 17.5557 10.8378 17.2227 10.6417 16.8297C10.4455 16.4367 10.3586 15.9981 10.39 15.56V8.44001C10.3586 8.00189 10.4455 7.56337 10.6417 7.17037C10.8378 6.77736 11.1361 6.44433 11.5051 6.20613C11.8742 5.96793 12.3005 5.83333 12.7394 5.81642C13.1783 5.79951 13.6137 5.90091 14 6.11001L20 9.66001C20.39 9.91326 20.7106 10.26 20.9325 10.6687C21.1544 11.0773 21.2706 11.535 21.2706 12C21.2706 12.465 21.1544 12.9227 20.9325 13.3314C20.7106 13.74 20.39 14.0868 20 14.34Z" stroke="white" stroke-width="1.5" stroke-linecap="round" stroke-linejoin="round"/>
</svg>
